<mxfile host="app.diagrams.net" modified="2021-03-30T00:04:07.179Z" agent="5.0 (Windows NT 10.0; Win64; x64) AppleWebKit/537.36 (KHTML, like Gecko) Chrome/89.0.4389.90 Safari/537.36 Edg/89.0.774.63" etag="6Rbh87RW29osDI01L2Cy" version="14.4.8" type="github">
  <diagram id="iyq81xRfX0ROuIWY85sS" name="Page-1">
    <mxGraphModel dx="1530" dy="603" grid="1" gridSize="10" guides="1" tooltips="1" connect="1" arrows="1" fold="1" page="1" pageScale="1" pageWidth="827" pageHeight="1169" math="0" shadow="0">
      <root>
        <mxCell id="0" />
        <mxCell id="1" parent="0" />
        <mxCell id="gQkKwMg1-9QJX_ZLh55y-1" value="Squad 10" style="rounded=0;whiteSpace=wrap;html=1;" vertex="1" parent="1">
          <mxGeometry x="60" y="40" width="120" height="40" as="geometry" />
        </mxCell>
        <mxCell id="gQkKwMg1-9QJX_ZLh55y-8" style="edgeStyle=orthogonalEdgeStyle;rounded=0;orthogonalLoop=1;jettySize=auto;html=1;exitX=0.5;exitY=0.5;exitDx=0;exitDy=0;exitPerimeter=0;entryX=0;entryY=0.5;entryDx=0;entryDy=0;" edge="1" parent="1" source="gQkKwMg1-9QJX_ZLh55y-2" target="gQkKwMg1-9QJX_ZLh55y-1">
          <mxGeometry relative="1" as="geometry" />
        </mxCell>
        <mxCell id="gQkKwMg1-9QJX_ZLh55y-2" value="Actor" style="shape=umlActor;verticalLabelPosition=bottom;verticalAlign=top;html=1;outlineConnect=0;" vertex="1" parent="1">
          <mxGeometry x="10" y="40" width="20" height="40" as="geometry" />
        </mxCell>
        <mxCell id="gQkKwMg1-9QJX_ZLh55y-4" value="Grupo de Especialistas" style="rounded=0;whiteSpace=wrap;html=1;" vertex="1" parent="1">
          <mxGeometry x="630" y="300" width="130" height="40" as="geometry" />
        </mxCell>
        <mxCell id="gQkKwMg1-9QJX_ZLh55y-7" style="edgeStyle=orthogonalEdgeStyle;rounded=0;orthogonalLoop=1;jettySize=auto;html=1;exitX=0.5;exitY=0.5;exitDx=0;exitDy=0;exitPerimeter=0;entryX=1;entryY=0.5;entryDx=0;entryDy=0;" edge="1" parent="1" source="gQkKwMg1-9QJX_ZLh55y-5" target="gQkKwMg1-9QJX_ZLh55y-4">
          <mxGeometry relative="1" as="geometry" />
        </mxCell>
        <mxCell id="gQkKwMg1-9QJX_ZLh55y-5" value="Actor" style="shape=umlActor;verticalLabelPosition=bottom;verticalAlign=top;html=1;outlineConnect=0;" vertex="1" parent="1">
          <mxGeometry x="790" y="300" width="20" height="40" as="geometry" />
        </mxCell>
        <mxCell id="gQkKwMg1-9QJX_ZLh55y-6" value="Perguntas técnicas" style="ellipse;whiteSpace=wrap;html=1;" vertex="1" parent="1">
          <mxGeometry x="450" y="35" width="140" height="50" as="geometry" />
        </mxCell>
        <mxCell id="gQkKwMg1-9QJX_ZLh55y-9" value="avaliação pessoal" style="ellipse;whiteSpace=wrap;html=1;" vertex="1" parent="1">
          <mxGeometry x="450" y="125" width="140" height="50" as="geometry" />
        </mxCell>
        <mxCell id="gQkKwMg1-9QJX_ZLh55y-10" value="Grau de ansiedade" style="ellipse;whiteSpace=wrap;html=1;" vertex="1" parent="1">
          <mxGeometry x="450" y="210" width="140" height="50" as="geometry" />
        </mxCell>
        <mxCell id="gQkKwMg1-9QJX_ZLh55y-12" value="Bot indentifica&lt;br&gt;um grau leve&lt;br&gt;de ansiedade" style="rounded=1;whiteSpace=wrap;html=1;" vertex="1" parent="1">
          <mxGeometry x="60" y="300" width="150" height="60" as="geometry" />
        </mxCell>
        <mxCell id="gQkKwMg1-9QJX_ZLh55y-13" value="" style="endArrow=none;html=1;exitX=1;exitY=0.5;exitDx=0;exitDy=0;entryX=0;entryY=0.5;entryDx=0;entryDy=0;" edge="1" parent="1" source="gQkKwMg1-9QJX_ZLh55y-43" target="gQkKwMg1-9QJX_ZLh55y-6">
          <mxGeometry width="50" height="50" relative="1" as="geometry">
            <mxPoint x="360" y="250" as="sourcePoint" />
            <mxPoint x="240" y="62" as="targetPoint" />
            <Array as="points" />
          </mxGeometry>
        </mxCell>
        <mxCell id="gQkKwMg1-9QJX_ZLh55y-14" value="" style="endArrow=none;html=1;entryX=0.5;entryY=1;entryDx=0;entryDy=0;exitX=0.5;exitY=0;exitDx=0;exitDy=0;" edge="1" parent="1" source="gQkKwMg1-9QJX_ZLh55y-9" target="gQkKwMg1-9QJX_ZLh55y-6">
          <mxGeometry width="50" height="50" relative="1" as="geometry">
            <mxPoint x="360" y="250" as="sourcePoint" />
            <mxPoint x="410" y="200" as="targetPoint" />
          </mxGeometry>
        </mxCell>
        <mxCell id="gQkKwMg1-9QJX_ZLh55y-15" value="" style="endArrow=none;html=1;exitX=0.5;exitY=0;exitDx=0;exitDy=0;entryX=0.5;entryY=1;entryDx=0;entryDy=0;" edge="1" parent="1" source="gQkKwMg1-9QJX_ZLh55y-10" target="gQkKwMg1-9QJX_ZLh55y-9">
          <mxGeometry width="50" height="50" relative="1" as="geometry">
            <mxPoint x="360" y="250" as="sourcePoint" />
            <mxPoint x="410" y="200" as="targetPoint" />
          </mxGeometry>
        </mxCell>
        <mxCell id="gQkKwMg1-9QJX_ZLh55y-17" value="" style="endArrow=none;html=1;exitX=0;exitY=0.5;exitDx=0;exitDy=0;entryX=0.5;entryY=0;entryDx=0;entryDy=0;" edge="1" parent="1" source="gQkKwMg1-9QJX_ZLh55y-10" target="gQkKwMg1-9QJX_ZLh55y-12">
          <mxGeometry width="50" height="50" relative="1" as="geometry">
            <mxPoint x="360" y="250" as="sourcePoint" />
            <mxPoint x="410" y="200" as="targetPoint" />
            <Array as="points">
              <mxPoint x="135" y="235" />
            </Array>
          </mxGeometry>
        </mxCell>
        <mxCell id="gQkKwMg1-9QJX_ZLh55y-20" value="" style="endArrow=none;html=1;exitX=0.5;exitY=1;exitDx=0;exitDy=0;entryX=0;entryY=0;entryDx=30;entryDy=0;entryPerimeter=0;" edge="1" parent="1" source="gQkKwMg1-9QJX_ZLh55y-10" target="gQkKwMg1-9QJX_ZLh55y-30">
          <mxGeometry width="50" height="50" relative="1" as="geometry">
            <mxPoint x="340" y="240" as="sourcePoint" />
            <mxPoint x="310" y="280" as="targetPoint" />
          </mxGeometry>
        </mxCell>
        <mxCell id="gQkKwMg1-9QJX_ZLh55y-25" value="Conversa com o Bot" style="ellipse;whiteSpace=wrap;html=1;" vertex="1" parent="1">
          <mxGeometry x="65" y="400" width="140" height="50" as="geometry" />
        </mxCell>
        <mxCell id="gQkKwMg1-9QJX_ZLh55y-26" value="" style="endArrow=none;html=1;exitX=0.5;exitY=1;exitDx=0;exitDy=0;entryX=0.5;entryY=0;entryDx=0;entryDy=0;" edge="1" parent="1" source="gQkKwMg1-9QJX_ZLh55y-12" target="gQkKwMg1-9QJX_ZLh55y-25">
          <mxGeometry width="50" height="50" relative="1" as="geometry">
            <mxPoint x="340" y="360" as="sourcePoint" />
            <mxPoint x="390" y="310" as="targetPoint" />
          </mxGeometry>
        </mxCell>
        <mxCell id="gQkKwMg1-9QJX_ZLh55y-28" value="" style="endArrow=none;html=1;exitX=0.5;exitY=1;exitDx=0;exitDy=0;entryX=0.5;entryY=0;entryDx=0;entryDy=0;entryPerimeter=0;" edge="1" parent="1" source="gQkKwMg1-9QJX_ZLh55y-25" target="gQkKwMg1-9QJX_ZLh55y-31">
          <mxGeometry width="50" height="50" relative="1" as="geometry">
            <mxPoint x="280" y="340" as="sourcePoint" />
            <mxPoint x="135" y="470" as="targetPoint" />
          </mxGeometry>
        </mxCell>
        <mxCell id="gQkKwMg1-9QJX_ZLh55y-30" value="Relatório do atendimento" style="shape=card;whiteSpace=wrap;html=1;" vertex="1" parent="1">
          <mxGeometry x="490" y="275" width="70" height="90" as="geometry" />
        </mxCell>
        <mxCell id="gQkKwMg1-9QJX_ZLh55y-31" value="Bot consegue&lt;br&gt;ajudar momentaneamente" style="shape=callout;whiteSpace=wrap;html=1;perimeter=calloutPerimeter;" vertex="1" parent="1">
          <mxGeometry x="72.5" y="470" width="125" height="100" as="geometry" />
        </mxCell>
        <mxCell id="gQkKwMg1-9QJX_ZLh55y-32" value="Bot não foi eficaz" style="shape=callout;whiteSpace=wrap;html=1;perimeter=calloutPerimeter;" vertex="1" parent="1">
          <mxGeometry x="270" y="400" width="120" height="80" as="geometry" />
        </mxCell>
        <mxCell id="gQkKwMg1-9QJX_ZLh55y-33" value="" style="endArrow=none;html=1;exitX=1;exitY=0.5;exitDx=0;exitDy=0;entryX=0;entryY=0;entryDx=0;entryDy=25;entryPerimeter=0;" edge="1" parent="1" source="gQkKwMg1-9QJX_ZLh55y-25" target="gQkKwMg1-9QJX_ZLh55y-32">
          <mxGeometry width="50" height="50" relative="1" as="geometry">
            <mxPoint x="280" y="340" as="sourcePoint" />
            <mxPoint x="330" y="290" as="targetPoint" />
          </mxGeometry>
        </mxCell>
        <mxCell id="gQkKwMg1-9QJX_ZLh55y-34" value="" style="endArrow=none;html=1;exitX=0;exitY=0;exitDx=120;exitDy=25;exitPerimeter=0;entryX=0.5;entryY=1;entryDx=0;entryDy=0;" edge="1" parent="1" source="gQkKwMg1-9QJX_ZLh55y-32" target="gQkKwMg1-9QJX_ZLh55y-4">
          <mxGeometry width="50" height="50" relative="1" as="geometry">
            <mxPoint x="280" y="340" as="sourcePoint" />
            <mxPoint x="330" y="290" as="targetPoint" />
            <Array as="points">
              <mxPoint x="615" y="425" />
            </Array>
          </mxGeometry>
        </mxCell>
        <mxCell id="gQkKwMg1-9QJX_ZLh55y-35" value="Fim da conversa" style="rounded=0;whiteSpace=wrap;html=1;" vertex="1" parent="1">
          <mxGeometry x="72.5" y="600" width="125" height="40" as="geometry" />
        </mxCell>
        <mxCell id="gQkKwMg1-9QJX_ZLh55y-36" value="" style="endArrow=none;html=1;entryX=0.5;entryY=0;entryDx=0;entryDy=0;" edge="1" parent="1" target="gQkKwMg1-9QJX_ZLh55y-35">
          <mxGeometry width="50" height="50" relative="1" as="geometry">
            <mxPoint x="135" y="570" as="sourcePoint" />
            <mxPoint x="330" y="330" as="targetPoint" />
          </mxGeometry>
        </mxCell>
        <mxCell id="gQkKwMg1-9QJX_ZLh55y-38" value="" style="endArrow=none;html=1;entryX=0;entryY=0.5;entryDx=0;entryDy=0;exitX=1;exitY=0.5;exitDx=0;exitDy=0;exitPerimeter=0;" edge="1" parent="1" source="gQkKwMg1-9QJX_ZLh55y-30" target="gQkKwMg1-9QJX_ZLh55y-4">
          <mxGeometry width="50" height="50" relative="1" as="geometry">
            <mxPoint x="330" y="305" as="sourcePoint" />
            <mxPoint x="400" y="305" as="targetPoint" />
          </mxGeometry>
        </mxCell>
        <mxCell id="gQkKwMg1-9QJX_ZLh55y-39" value="BD" style="shape=cylinder3;whiteSpace=wrap;html=1;boundedLbl=1;backgroundOutline=1;size=15;" vertex="1" parent="1">
          <mxGeometry x="940" y="510" width="90" height="100" as="geometry" />
        </mxCell>
        <mxCell id="gQkKwMg1-9QJX_ZLh55y-41" value="Login" style="shape=hexagon;perimeter=hexagonPerimeter2;whiteSpace=wrap;html=1;fixedSize=1;" vertex="1" parent="1">
          <mxGeometry x="205" y="45" width="90" height="30" as="geometry" />
        </mxCell>
        <mxCell id="gQkKwMg1-9QJX_ZLh55y-42" value="" style="endArrow=none;html=1;exitX=1;exitY=0.5;exitDx=0;exitDy=0;entryX=0;entryY=0.5;entryDx=0;entryDy=0;" edge="1" parent="1" source="gQkKwMg1-9QJX_ZLh55y-1" target="gQkKwMg1-9QJX_ZLh55y-41">
          <mxGeometry width="50" height="50" relative="1" as="geometry">
            <mxPoint x="180" y="60" as="sourcePoint" />
            <mxPoint x="343" y="60" as="targetPoint" />
            <Array as="points" />
          </mxGeometry>
        </mxCell>
        <mxCell id="gQkKwMg1-9QJX_ZLh55y-43" value="ChatBot" style="rounded=0;whiteSpace=wrap;html=1;" vertex="1" parent="1">
          <mxGeometry x="320" y="40" width="100" height="40" as="geometry" />
        </mxCell>
        <mxCell id="gQkKwMg1-9QJX_ZLh55y-44" value="" style="endArrow=none;html=1;exitX=1;exitY=0.5;exitDx=0;exitDy=0;entryX=0;entryY=0.5;entryDx=0;entryDy=0;" edge="1" parent="1" source="gQkKwMg1-9QJX_ZLh55y-41" target="gQkKwMg1-9QJX_ZLh55y-43">
          <mxGeometry width="50" height="50" relative="1" as="geometry">
            <mxPoint x="280" y="60" as="sourcePoint" />
            <mxPoint x="380" y="60" as="targetPoint" />
            <Array as="points" />
          </mxGeometry>
        </mxCell>
        <mxCell id="gQkKwMg1-9QJX_ZLh55y-46" value="" style="endArrow=none;html=1;exitX=1;exitY=0.5;exitDx=0;exitDy=0;entryX=0.5;entryY=0;entryDx=0;entryDy=0;entryPerimeter=0;" edge="1" parent="1" source="gQkKwMg1-9QJX_ZLh55y-10" target="gQkKwMg1-9QJX_ZLh55y-39">
          <mxGeometry width="50" height="50" relative="1" as="geometry">
            <mxPoint x="470" y="360" as="sourcePoint" />
            <mxPoint x="520" y="310" as="targetPoint" />
            <Array as="points">
              <mxPoint x="985" y="235" />
            </Array>
          </mxGeometry>
        </mxCell>
        <mxCell id="gQkKwMg1-9QJX_ZLh55y-47" value="" style="endArrow=none;html=1;exitX=1;exitY=0.5;exitDx=0;exitDy=0;entryX=0.5;entryY=1;entryDx=0;entryDy=0;entryPerimeter=0;" edge="1" parent="1" source="gQkKwMg1-9QJX_ZLh55y-48" target="gQkKwMg1-9QJX_ZLh55y-39">
          <mxGeometry width="50" height="50" relative="1" as="geometry">
            <mxPoint x="470" y="360" as="sourcePoint" />
            <mxPoint x="520" y="310" as="targetPoint" />
            <Array as="points">
              <mxPoint x="985" y="620" />
            </Array>
          </mxGeometry>
        </mxCell>
        <mxCell id="gQkKwMg1-9QJX_ZLh55y-48" value="Dados colhidos" style="rounded=0;whiteSpace=wrap;html=1;" vertex="1" parent="1">
          <mxGeometry x="615" y="595" width="160" height="50" as="geometry" />
        </mxCell>
        <mxCell id="gQkKwMg1-9QJX_ZLh55y-49" value="" style="endArrow=none;html=1;exitX=1;exitY=0.5;exitDx=0;exitDy=0;entryX=0;entryY=0.5;entryDx=0;entryDy=0;" edge="1" parent="1" source="gQkKwMg1-9QJX_ZLh55y-35" target="gQkKwMg1-9QJX_ZLh55y-48">
          <mxGeometry width="50" height="50" relative="1" as="geometry">
            <mxPoint x="197.5" y="620" as="sourcePoint" />
            <mxPoint x="985" y="610" as="targetPoint" />
            <Array as="points" />
          </mxGeometry>
        </mxCell>
        <mxCell id="gQkKwMg1-9QJX_ZLh55y-50" value="" style="endArrow=none;html=1;entryX=0.5;entryY=1;entryDx=0;entryDy=0;exitX=0.5;exitY=0;exitDx=0;exitDy=0;" edge="1" parent="1" source="gQkKwMg1-9QJX_ZLh55y-48" target="gQkKwMg1-9QJX_ZLh55y-4">
          <mxGeometry width="50" height="50" relative="1" as="geometry">
            <mxPoint x="470" y="440" as="sourcePoint" />
            <mxPoint x="520" y="390" as="targetPoint" />
          </mxGeometry>
        </mxCell>
      </root>
    </mxGraphModel>
  </diagram>
</mxfile>
